<?xml version="1.0" encoding="utf-8"?>
<svg xmlns="http://www.w3.org/2000/svg" viewBox="-180.3517 28.0564 17.0025 15.0025" width="17.0025px" height="15.0025px"><defs><style>
    g, symbol { 
        display: inline !important; 
        float: left; 
        width: 60px !important; 
        height: 60px !important; 
        position: relative !important; 
        border: 1px solid #e2e8f0;
        margin: 5px;
        background: #ffffff;
    }
    path { 
        fill: #333333 !important;
    }
</style></defs><g id="btn-quick-print" viewBox="0 0 20 20" transform="matrix(1, 0, 0, 1, -182.35165405273438, 25.05644989013672)"><path fill-rule="evenodd" d="M6 4h8v2H6zM5 6V4a1 1 0 0 1 1-1h8a1 1 0 0 1 1 1v2h2a1 1 0 0 1 1 1v3.671A4.5 4.5 0 0 1 11.671 17H6a1 1 0 0 1-1-1v-2H3a1 1 0 0 1-1-1V7a1 1 0 0 1 1-1zm12 1v2.758A4.5 4.5 0 0 0 14.5 9a4.48 4.48 0 0 0-2.829 1H6a1 1 0 0 0-1 1v2H3V7zM6 11h4.758A4.5 4.5 0 0 0 10 13.5c0 .925.28 1.785.758 2.5H6zM4 8h1v1H4zm10.5 9a3.5 3.5 0 1 0 0-7 3.5 3.5 0 0 0 0 7m2.048-5.497.794.882-3.046 4.089-.335-.372-.003.004-2.008-2.23.743-.669 1.523 1.297z" clip-rule="evenodd"/></g></svg>