<?xml version="1.0" encoding="utf-8"?>
<svg xmlns="http://www.w3.org/2000/svg" viewBox="17.3553 198.6986 17 16" width="17px" height="16px"><defs><style>
    g, symbol { 
        display: inline !important; 
        float: left; 
        width: 60px !important; 
        height: 60px !important; 
        position: relative !important; 
        border: 1px solid #e2e8f0;
        margin: 5px;
        background: #ffffff;
    }
    path { 
        fill: #333333 !important;
    }
</style></defs><g id="btn-chartcategory-recommended" viewBox="0 0 20 20" transform="matrix(1, 0, 0, 1, 16.35526466369629, 196.69863891601562)"><path d="m9.5 2 .318 1.182L11 3.5l-1.182.318L9.5 5l-.318-1.182L8 3.5l1.182-.318zM3.424 4.576 3 3l-.424 1.576L1 5l1.576.424L3 7l.424-1.576L5 5zm4.212 2.788L7 5l-.636 2.364L4 8l2.364.636L7 11l.636-2.364L10 8zM18 8h-4v10h4zm-6 4v6H8v-6zm-6 6v-3H2v3z"/></g></svg>