<?xml version="1.0" encoding="utf-8"?>
<svg xmlns="http://www.w3.org/2000/svg" viewBox="-180.6014 199.945 14 14" width="14px" height="14px"><defs><style>
    g, symbol { 
        display: inline !important; 
        float: left; 
        width: 60px !important; 
        height: 60px !important; 
        position: relative !important; 
        border: 1px solid #e2e8f0;
        margin: 5px;
        background: #ffffff;
    }
    path { 
        fill: #333333 !important;
    }
</style></defs><g id="btn-menu-chart" viewBox="0 0 20 20" transform="matrix(1, 0, 0, 1, -183.60137939453125, 196.94500732421875)"><path fill-rule="evenodd" d="M14 4h2v12h-2zm-1 0a1 1 0 0 1 1-1h2a1 1 0 0 1 1 1v12a1 1 0 0 1-1 1h-2a1 1 0 0 1-1-1zm-2 5H9v7h2zM9 8a1 1 0 0 0-1 1v7a1 1 0 0 0 1 1h2a1 1 0 0 0 1-1V9a1 1 0 0 0-1-1zm-3 5H4v3h2zm-2-1a1 1 0 0 0-1 1v3a1 1 0 0 0 1 1h2a1 1 0 0 0 1-1v-3a1 1 0 0 0-1-1z" clip-rule="evenodd"/></g></svg>